<?xml version="1.0" encoding="UTF-8"?>
<svg version="1.1" xmlns="http://www.w3.org/2000/svg" width="1024" height="1024">
<path d="M0 0 C10.70450518 3.13534323 19.57360524 10.9223846 28 18 C28.76054688 18.62519531 29.52109375 19.25039063 30.3046875 19.89453125 C36.31883103 25.00343172 41.21327363 30.74111285 46 37 C46.60714844 37.79148437 47.21429687 38.58296875 47.83984375 39.3984375 C68.00052178 66.91936307 74.7310632 101.52182524 70.46875 135.1015625 C69.87238351 138.79774759 69.00117684 142.39141044 68 146 C67.74476563 146.99644531 67.48953125 147.99289062 67.2265625 149.01953125 C63.52886688 161.69007543 56.63030086 174.05500957 48 184 C47.56816406 184.57363281 47.13632812 185.14726562 46.69140625 185.73828125 C36.05384738 199.46925487 18.35949091 208.3693806 2 213 C3.26714844 213.32613281 4.53429687 213.65226563 5.83984375 213.98828125 C7.53910451 214.42952576 9.23832089 214.87094117 10.9375 215.3125 C11.76830078 215.52583984 12.59910156 215.73917969 13.45507812 215.95898438 C42.11814004 223.43145577 65.76506534 240.61336843 80.95214844 266.203125 C98.26402393 295.88984532 100.91508401 332.56976435 92.87719727 365.67529297 C83.86244547 399.30648619 61.81127538 425.49650594 32.390625 443.2109375 C7.1581639 457.74148811 -21.22929405 463.78844111 -49.76708984 467.61450195 C-52.02945835 467.89450919 -52.02945835 467.89450919 -54 469 C-55.9785906 469.04774879 -57.95867817 469.03694416 -59.9375 469 C-66.85797272 468.92828526 -73.70225369 469.27616858 -80.60131836 469.8203125 C-87.75582073 470.29722965 -87.75582073 470.29722965 -91 468 C-90.01 467.67 -89.02 467.34 -88 467 C-85.37143695 460.86141189 -85.69303905 453.59177514 -85.69921875 447.04296875 C-85.69279106 445.50664543 -85.69279106 445.50664543 -85.68623352 443.93928528 C-85.68052049 441.78366837 -85.67996747 439.62803219 -85.68432617 437.47241211 C-85.68748099 434.20717822 -85.66400578 430.94285628 -85.63867188 427.67773438 C-85.46855163 406.07848262 -85.46855163 406.07848262 -95.43359375 387.40625 C-96.61092117 386.25893943 -97.80391263 385.12773952 -99 384 C-99 383.34 -99 382.68 -99 382 C-95.6254134 381.82421106 -92.25038417 381.65973376 -88.875 381.5 C-87.84052734 381.45085449 -86.80605469 381.40170898 -85.74023438 381.35107422 C-79.57407048 381.08245111 -73.44470586 380.98681686 -67.27392578 381.08325195 C-46.32653591 381.39851367 -25.42964044 376.94761656 -9.6875 362.1875 C1.87555981 349.91505002 6.41112576 334.16363705 5.97827148 317.56469727 C5.42502555 305.83405234 2.60789221 292.60789221 -6 284 C-6.3815625 283.49984375 -6.763125 282.9996875 -7.15625 282.484375 C-11.29826016 277.13829212 -16.03023677 274.07869218 -22 271 C-22.86109375 270.54496094 -23.7221875 270.08992188 -24.609375 269.62109375 C-43.01076912 260.91421941 -64.7211489 262.60650512 -84.57769775 262.79400635 C-88.24575483 262.82523394 -91.91387831 262.83850973 -95.58203125 262.85351562 C-102.72151078 262.88525793 -109.86072912 262.93614792 -117 263 C-118.2313417 260.53731659 -118.12692762 258.92244072 -118.12939453 256.16845703 C-118.13250641 255.15699112 -118.13561829 254.14552521 -118.13882446 253.10340881 C-118.13684052 251.99936203 -118.13485657 250.89531525 -118.1328125 249.7578125 C-118.13413177 248.61392563 -118.13545105 247.47003876 -118.1368103 246.29148865 C-118.13872994 242.56929837 -118.13239374 238.84718264 -118.125 235.125 C-118.12411377 233.87290741 -118.12322754 232.62081482 -118.12231445 231.33078003 C-118.10740519 213.53615027 -117.96106189 195.77197692 -117 178 C-115.95884033 178.01571045 -114.91768066 178.0314209 -113.8449707 178.04760742 C-68.20898045 179.64101854 -68.20898045 179.64101854 -28.94921875 159.09765625 C-18.80496869 148.47551861 -16.51137446 134.91280371 -16.75390625 120.74609375 C-17.4847623 109.62084056 -21.14977725 100.76783246 -28.3125 92.25 C-33.73380584 87.71123232 -39.58284906 83.96176197 -46 81 C-42.34123334 78.79535855 -38.52020625 78.33192282 -34.375 77.6875 C-22.94515235 75.69992487 -13.41321839 71.1807999 -6.27734375 61.71484375 C1.17672449 50.15829078 1.45941798 38.52962172 1.33618164 25.19018555 C1.31228328 22.41230942 1.31567643 19.63537679 1.32226562 16.85742188 C1.31669748 15.09114009 1.30959307 13.32486233 1.30078125 11.55859375 C1.30169266 10.72847275 1.30260406 9.89835175 1.30354309 9.04307556 C1.43641297 4.54796125 1.43641297 4.54796125 -1 1 C-0.67 0.67 -0.34 0.34 0 0 Z " fill="#0083FE" transform="translate(635,259)"/>
<path d="M0 0 C7.64917758 6.92848419 10.80951993 16.07715483 11.38208008 26.10424805 C11.86414209 36.2765736 11.94816446 46.40848544 11.69921875 56.58984375 C11.67239014 58.39569946 11.67239014 58.39569946 11.64501953 60.23803711 C11.33943246 69.69221908 9.51022989 79.18377385 3.55859375 86.84375 C-5.97669226 95.73295354 -19.63240308 98.7358733 -32.2265625 98.546875 C-43.34402932 97.99024946 -54.34194003 94.96290217 -62.11328125 86.52734375 C-72.5072268 73.31942757 -71.21024263 57.77521283 -71.30078125 41.77734375 C-71.31375244 40.56320801 -71.32672363 39.34907227 -71.34008789 38.09814453 C-71.35355315 24.82499313 -70.83378288 11.32951273 -61.0703125 1.3046875 C-44.04665779 -12.88671315 -17.55984682 -13.27537403 0 0 Z M-42.11328125 18.40234375 C-44.71587509 23.09567485 -44.41935396 27.90119895 -44.4140625 33.12109375 C-44.41834763 34.05659058 -44.42263275 34.9920874 -44.42704773 35.95593262 C-44.43277843 37.92943514 -44.43330059 39.90295878 -44.42895508 41.87646484 C-44.42579213 44.89196812 -44.44928036 47.90649269 -44.47460938 50.921875 C-44.47688223 52.84244668 -44.47758593 54.763021 -44.4765625 56.68359375 C-44.48577225 57.58267456 -44.49498199 58.48175537 -44.50447083 59.40808105 C-44.4583519 65.65997332 -43.36244361 69.02087772 -38.98828125 73.65234375 C-35.06871026 76.03816957 -31.67643478 76.59801929 -27.11328125 76.40234375 C-21.86500419 74.85367183 -19.14178645 72.94510156 -16.11328125 68.40234375 C-14.45156847 65.07891818 -14.9285896 61.35810507 -14.91015625 57.703125 C-14.90160614 56.40050972 -14.90160614 56.40050972 -14.8928833 55.07157898 C-14.88342584 53.22977926 -14.87689636 51.38796256 -14.87304688 49.54614258 C-14.86337956 46.74334611 -14.83237957 43.94129495 -14.80078125 41.13867188 C-14.79424724 39.3476606 -14.78899833 37.55664408 -14.78515625 35.765625 C-14.77280945 34.93307693 -14.76046265 34.10052887 -14.7477417 33.24275208 C-14.77199299 26.82783698 -15.84732361 22.0116283 -20.17578125 17.02734375 C-24.20740221 13.64598424 -28.02150408 14.07217682 -33.12109375 14.12109375 C-37.11635988 14.4966279 -39.24698219 15.61147361 -42.11328125 18.40234375 Z " fill="#007CFC" transform="translate(391.11328125,527.59765625)"/>
<path d="M0 0 C6.96279385 4.93951447 11.48704161 11.10984698 13.53125 19.45703125 C14.41439281 25.47463986 14.69049899 31.44094827 14.69921875 37.515625 C14.70421135 38.75941673 14.70421135 38.75941673 14.70930481 40.02833557 C14.71432983 41.76864066 14.71671452 43.50895524 14.71655273 45.24926758 C14.71874162 47.88444116 14.73695129 50.51919691 14.75585938 53.15429688 C14.804282 67.2452813 14.28435108 79.23925954 4.40625 90.20703125 C-5.26685769 99.3286021 -17.28620724 99.84253286 -29.7890625 99.66796875 C-39.69030388 99.35034477 -49.17661236 95.73781237 -56.2890625 88.640625 C-63.54709813 79.61367114 -65.11104129 70.8398603 -64.46875 59.45703125 C-65.12875 59.12703125 -65.78875 58.79703125 -66.46875 58.45703125 C-65.80875 58.45703125 -65.14875 58.45703125 -64.46875 58.45703125 C-64.49493408 57.40427002 -64.52111816 56.35150879 -64.5480957 55.2668457 C-64.63972716 51.29913233 -64.69640176 47.33150891 -64.7434082 43.36303711 C-64.76829881 41.65714711 -64.80222467 39.95136085 -64.84594727 38.24584961 C-65.1392563 26.49623476 -65.24064265 15.10927194 -57.08374023 5.70825195 C-42.710348 -8.35354615 -16.9657671 -10.60360444 0 0 Z M-36.78125 20.83203125 C-39.87759913 25.64857435 -39.62802876 30.73941019 -39.63671875 36.3203125 C-39.64004715 37.07112595 -39.64337555 37.82193939 -39.64680481 38.59550476 C-39.65185192 40.1797932 -39.65421382 41.7640922 -39.65405273 43.34838867 C-39.65623347 45.75132107 -39.67439663 48.15378965 -39.69335938 50.55664062 C-39.69629506 52.10286303 -39.69827868 53.64908759 -39.69921875 55.1953125 C-39.70640427 55.90391922 -39.71358978 56.61252594 -39.72099304 57.34260559 C-39.69681882 62.71691948 -39.42264681 68.89356218 -36.06640625 73.296875 C-31.01605725 76.90793879 -27.68025754 77.87815041 -21.46875 77.45703125 C-16.78704732 75.71286751 -14.25625809 73.58667286 -11.46875 69.45703125 C-10.17987006 65.59039143 -10.28663059 61.91028681 -10.265625 57.87890625 C-10.25707489 56.61170746 -10.25707489 56.61170746 -10.24835205 55.31890869 C-10.238907 53.53016408 -10.23237003 51.74140211 -10.22851562 49.95263672 C-10.21883572 47.23113141 -10.18781878 44.51038978 -10.15625 41.7890625 C-10.14971694 40.04818155 -10.14446766 38.30729522 -10.140625 36.56640625 C-10.1282782 35.75886902 -10.1159314 34.95133179 -10.10321045 34.11932373 C-10.12385394 28.81865818 -10.97127431 25.15824966 -13.46875 20.45703125 C-17.10284648 17.00463959 -19.74554818 15.58708422 -24.78125 15.20703125 C-30.05537974 15.56459937 -33.1021449 17.05349088 -36.78125 20.83203125 Z " fill="#0098FD" transform="translate(467.46875,242.54296875)"/>
<path d="M0 0 C5.95468944 7.55671249 7.31372565 14.87724259 7.3359375 24.296875 C7.3459227 25.78009247 7.3459227 25.78009247 7.35610962 27.29327393 C7.36620968 29.38104399 7.37092746 31.46884616 7.37060547 33.55664062 C7.37496671 36.72581184 7.41128231 39.89357591 7.44921875 43.0625 C7.45509009 45.09895362 7.45905736 47.13541379 7.4609375 49.171875 C7.47530853 50.10763367 7.48967957 51.04339233 7.50448608 52.00750732 C7.44948523 60.05959601 5.27811487 66.51582432 0.875 73.25 C-9.96457946 83.61829339 -22.79582858 85.57178575 -37.26953125 85.56030273 C-44.9720513 85.32237367 -50.68704084 83.54815429 -57 79 C-57.76570313 78.47019531 -58.53140625 77.94039062 -59.3203125 77.39453125 C-67.00877497 71.42249675 -70.07581754 63.93177008 -71.3125 54.4375 C-72.24097666 45.96653367 -72.25991212 37.50751704 -72 29 C-71.97035156 27.73542969 -71.94070313 26.47085938 -71.91015625 25.16796875 C-71.43262447 14.41768025 -68.82757837 4.77750857 -61 -3 C-43.51420611 -16.00596239 -16.03707727 -15.26673732 0 0 Z M-41 12 C-47.67283143 18.67283143 -46.18314024 27.48398374 -46.1875 36.3125 C-46.19974609 37.60607422 -46.21199219 38.89964844 -46.22460938 40.23242188 C-46.70574456 50.97730072 -46.70574456 50.97730072 -42.68481445 60.54394531 C-40.02799384 62.91757687 -37.56691742 64.67573478 -34 65 C-32.906875 65.103125 -31.81375 65.20625 -30.6875 65.3125 C-26.15708196 64.92856627 -23.42583727 63.96633059 -20 61 C-16.25537681 53.74588113 -16.55198273 46.59034292 -16.625 38.5625 C-16.61339844 37.29083984 -16.60179687 36.01917969 -16.58984375 34.70898438 C-16.61482418 26.67777507 -16.88038931 19.19533851 -21.8125 12.5625 C-28.34396383 7.89716869 -34.09539265 8.42439977 -41 12 Z " fill="#0562FA" transform="translate(393,651)"/>
<path d="M0 0 C6.98280009 4.67691274 11.72785334 11.58339299 13.78125 19.71484375 C14.19287163 23.77258243 14.34300897 27.82680321 14.46875 31.90234375 C14.52518677 33.63097656 14.52518677 33.63097656 14.58276367 35.39453125 C15.38918169 64.67745876 15.38918169 64.67745876 9.78125 74.71484375 C9.265625 75.76671875 8.75 76.81859375 8.21875 77.90234375 C0.76463794 86.50324228 -9.40328177 90.05029495 -20.48046875 90.9921875 C-32.5346492 91.34882006 -43.56294028 88.49356136 -52.6171875 80.296875 C-60.2186263 72.78813668 -61.45264299 62.48789155 -61.58203125 52.23828125 C-61.58984621 49.96011098 -61.57981909 47.68332089 -61.55493164 45.40527344 C-61.53121311 43.08623677 -61.53441051 40.7683473 -61.54101562 38.44921875 C-61.51744419 25.81349282 -61.01995654 13.772661 -52.09375 4.02734375 C-38.65542911 -8.65634141 -15.40048128 -8.92034919 0 0 Z M-34.21875 18.71484375 C-37.1396405 23.45228807 -37.6620215 27.51873929 -37.6171875 32.96484375 C-37.62005768 33.74118164 -37.62292786 34.51751953 -37.62588501 35.31738281 C-37.6279174 36.95117934 -37.62244547 38.58500066 -37.60986328 40.21875 C-37.59379683 42.70758913 -37.60973904 45.19480462 -37.62890625 47.68359375 C-37.62692367 49.2773473 -37.62307969 50.87109985 -37.6171875 52.46484375 C-37.62326019 53.20250977 -37.62933289 53.94017578 -37.6355896 54.70019531 C-37.56060687 60.25802078 -36.33046164 64.35947307 -32.59375 68.52734375 C-27.5363948 71.05602135 -22.79504223 71.15413831 -17.40625 69.65234375 C-13.62933313 67.35657075 -12.3099 65.5984478 -10.21875 61.71484375 C-9.67026437 58.89266772 -9.65679209 56.14993788 -9.6875 53.28125 C-9.68175964 52.08700661 -9.68175964 52.08700661 -9.67590332 50.86863708 C-9.67319261 49.19195281 -9.68049476 47.51522564 -9.69726562 45.83862305 C-9.71866121 43.28792881 -9.69745239 40.74005976 -9.671875 38.18945312 C-9.67451898 36.55337926 -9.67964542 34.91730714 -9.6875 33.28125 C-9.67940308 32.52687149 -9.67130615 31.77249298 -9.66296387 30.99525452 C-9.75908193 25.49990415 -11.09795655 22.25487246 -14.21875 17.71484375 C-19.69940167 14.00734409 -29.31243396 14.25455644 -34.21875 18.71484375 Z " fill="#0366FA" transform="translate(525.21875,645.28515625)"/>
<path d="M0 0 C6.77860251 6.22215007 9.3188917 14.49984777 9.93310547 23.52099609 C10.08582965 27.14870476 10.08842099 30.76908538 10.03686523 34.39916992 C10.00770309 36.637303 10.01634774 38.87308264 10.02929688 41.11132812 C10.01297115 52.91254451 8.74787826 62.47111728 0.5703125 71.44140625 C-6.9993839 78.61269757 -16.40916148 81.44140625 -26.70703125 81.44140625 C-37.90233796 80.81436457 -46.26355678 78.40140164 -54.4296875 70.44140625 C-64.89798949 57.2477799 -63.55882663 38.24093618 -62.12109375 22.328125 C-60.89690532 13.10879441 -57.99435847 6.15527429 -51.4296875 -0.55859375 C-36.34581445 -12.04652238 -15.04078878 -10.84599593 0 0 Z M-35.5546875 14.44140625 C-39.92615957 21.43576157 -39.74165084 29.00547199 -39.6796875 37.00390625 C-39.68742188 38.00615234 -39.69515625 39.00839844 -39.703125 40.04101562 C-39.68508209 46.89281241 -39.47542522 52.58977186 -35.3671875 58.31640625 C-31.42086555 61.17119234 -28.2481575 61.69761992 -23.4296875 61.44140625 C-19.87442433 60.56716121 -17.50373796 59.87801859 -15.2565918 56.87231445 C-12.1618678 51.06942439 -11.88490192 46.06293863 -12.0546875 39.56640625 C-12.05597656 38.63699219 -12.05726563 37.70757812 -12.05859375 36.75 C-12.15056921 29.42262142 -12.33937841 21.64219205 -16.4296875 15.37890625 C-20.34777123 11.58326264 -24.25315238 12.04258547 -29.50390625 12.10546875 C-32.63060333 12.24735772 -32.63060333 12.24735772 -35.5546875 14.44140625 Z " fill="#0083FB" transform="translate(611.4296875,244.55859375)"/>
<path d="M0 0 C2.55930462 2.55930462 2.23563634 4.21804776 2.24884033 7.70651245 C2.2380545 8.90197189 2.2380545 8.90197189 2.22705078 10.12158203 C2.22734283 10.96068115 2.22763489 11.79978027 2.22793579 12.66430664 C2.22653933 15.44557944 2.21096335 18.22658634 2.1953125 21.0078125 C2.19158349 22.93309381 2.18873599 24.85837701 2.18673706 26.78366089 C2.17909176 31.8570477 2.1594356 36.93032044 2.1373291 42.00366211 C2.11688995 47.17820696 2.10773948 52.35277019 2.09765625 57.52734375 C2.07619054 67.68494602 2.04204381 77.84246353 2 88 C-0.79700492 89.39850246 -2.98115359 89.0101384 -6.1015625 88.87890625 C-7.31328125 88.83056641 -8.525 88.78222656 -9.7734375 88.73242188 C-11.04445313 88.67634766 -12.31546875 88.62027344 -13.625 88.5625 C-14.90375 88.51029297 -16.1825 88.45808594 -17.5 88.40429688 C-20.666897 88.2743123 -23.83350287 88.13933598 -27 88 C-27.02536342 80.68596131 -27.04287256 73.37193397 -27.05493164 66.05786133 C-27.05995913 63.56990129 -27.06678202 61.0819442 -27.07543945 58.59399414 C-27.08757426 55.01708243 -27.09324419 51.4402098 -27.09765625 47.86328125 C-27.10281754 46.75165115 -27.10797882 45.64002106 -27.11329651 44.4947052 C-27.11337204 43.45400375 -27.11344757 42.41330231 -27.11352539 41.34106445 C-27.115746 40.4283931 -27.11796661 39.51572174 -27.12025452 38.57539368 C-27 36 -27 36 -26 31 C-56.69 31.495 -56.69 31.495 -88 32 C-89.40912096 29.18175808 -89.11183553 26.82748718 -89.09765625 23.6796875 C-89.09443359 22.42285156 -89.09121094 21.16601562 -89.08789062 19.87109375 C-89.07951172 18.55238281 -89.07113281 17.23367188 -89.0625 15.875 C-89.05748489 14.53515789 -89.05292201 13.195314 -89.04882812 11.85546875 C-89.03701086 8.57026794 -89.02053617 5.28515603 -89 2 C-85.25124998 0.75041666 -81.77561576 0.87657304 -77.87255859 0.90234375 C-77.04467331 0.90380402 -76.21678802 0.90526428 -75.36381531 0.9067688 C-73.56644469 0.91057439 -71.76907784 0.91669053 -69.97172165 0.92483521 C-67.13158163 0.93757561 -64.29148817 0.94410814 -61.45132446 0.94897461 C-55.42586208 0.96041223 -49.40043806 0.97966521 -43.375 1 C-36.38784693 1.02355049 -29.40071555 1.0439507 -22.41353226 1.05593872 C-19.60763915 1.06244964 -16.80181217 1.07495618 -13.99594116 1.08764648 C-12.28684549 1.09127684 -10.57774919 1.09462884 -8.86865234 1.09765625 C-7.6888958 1.10540573 -7.6888958 1.10540573 -6.48530579 1.11331177 C-4.65648045 1.11349278 -2.82776158 1.06236778 -1 1 C-0.67 0.67 -0.34 0.34 0 0 Z " fill="#0097FE" transform="translate(446,361)"/>
<path d="M0 0 C1.05638672 0.02707031 2.11277344 0.05414062 3.20117188 0.08203125 C5.78214426 0.1521029 8.35869007 0.2502653 10.9375 0.375 C12.17369121 2.84738241 12.06332049 4.47452257 12.06448364 7.2403717 C12.06730347 8.26820267 12.07012329 9.29603363 12.07302856 10.35501099 C12.07100433 11.48703949 12.0689801 12.61906799 12.06689453 13.78540039 C12.06864685 14.97402176 12.07039917 16.16264313 12.07220459 17.38728333 C12.07585866 20.65160439 12.07499241 23.9158851 12.0718255 27.18020558 C12.06929883 30.59103943 12.07164025 34.00187052 12.07321167 37.41270447 C12.07503222 43.14013149 12.0726298 48.86754563 12.06787109 54.5949707 C12.0624261 61.2251336 12.06419331 67.85526576 12.0696975 74.48542792 C12.0742288 80.17036518 12.07487917 85.85529316 12.07225883 91.54023165 C12.07069648 94.93899219 12.07050118 98.33773826 12.07379532 101.73649788 C12.07631995 105.52235146 12.07248404 109.30814505 12.06689453 113.09399414 C12.06891876 114.22804688 12.07094299 115.36209961 12.07302856 116.53051758 C12.07020874 117.55552872 12.06738892 118.58053986 12.06448364 119.63661194 C12.06410662 120.53276246 12.06372959 121.42891298 12.06334114 122.35221958 C11.9375 124.375 11.9375 124.375 10.9375 125.375 C9.01082493 125.46248207 7.08098139 125.48197334 5.15234375 125.47265625 C3.39760742 125.46782227 3.39760742 125.46782227 1.60742188 125.46289062 C0.37572266 125.45451172 -0.85597656 125.44613281 -2.125 125.4375 C-3.97834961 125.43073242 -3.97834961 125.43073242 -5.86914062 125.42382812 C-8.93364117 125.41199608 -11.99804721 125.39551173 -15.0625 125.375 C-16.72125797 122.05748407 -16.19139303 118.34902946 -16.17602539 114.70263672 C-16.17617142 113.80501617 -16.17631744 112.90739563 -16.1764679 111.98257446 C-16.17576953 109.00658782 -16.16798067 106.03066325 -16.16015625 103.0546875 C-16.1582918 100.99488357 -16.15686802 98.93507919 -16.15586853 96.87527466 C-16.15204548 91.44682598 -16.14221699 86.01840395 -16.13116455 80.58996582 C-16.12094588 75.05347046 -16.11636993 69.51697081 -16.11132812 63.98046875 C-16.10059455 53.11196744 -16.08352065 42.24348594 -16.0625 31.375 C-17.15667236 31.99608643 -18.25084473 32.61717285 -19.37817383 33.25708008 C-19.99364578 33.60644119 -20.60911774 33.95580231 -21.24324036 34.31575012 C-24.75703703 36.3616311 -28.12010416 38.64643019 -31.51171875 40.88671875 C-33.81318483 42.22953433 -35.50474264 42.80943673 -38.0625 43.375 C-39.68048464 20.22124998 -39.68048464 20.22124998 -35.58984375 14.21142578 C-31.95009047 10.95709223 -27.76510928 9.1017851 -23.24194336 7.37109375 C-20.79177601 6.25126819 -18.91723947 4.80873641 -16.78515625 3.16796875 C-11.3700891 -0.5717864 -6.38993206 -0.31445722 0 0 Z " fill="#036CFE" transform="translate(440.0625,605.625)"/>
<path d="M0 0 C0.33 35.64 0.66 71.28 1 108 C-1.70096077 109.35048039 -3.82726517 109.12963577 -6.84765625 109.1328125 C-8.00974609 109.13410156 -9.17183594 109.13539063 -10.36914062 109.13671875 C-11.58794922 109.13285156 -12.80675781 109.12898438 -14.0625 109.125 C-15.28517578 109.12886719 -16.50785156 109.13273437 -17.76757812 109.13671875 C-19.5087793 109.13478516 -19.5087793 109.13478516 -21.28515625 109.1328125 C-22.35644775 109.13168457 -23.42773926 109.13055664 -24.53149414 109.12939453 C-27 109 -27 109 -28 108 C-28.08902051 105.8376871 -28.10685318 103.67242581 -28.09765625 101.50830078 C-28.09619598 100.83022369 -28.09473572 100.15214661 -28.0932312 99.45352173 C-28.08941651 97.97642418 -28.0832909 96.49933125 -28.07516479 95.02225113 C-28.0624482 92.68579445 -28.05589743 90.34939426 -28.05102539 88.01290894 C-28.03762238 82.20759175 -28.01345178 76.40232795 -27.98962402 70.5970459 C-27.96991284 65.6975116 -27.95426143 60.7979973 -27.94406128 55.89843369 C-27.93756827 53.59453517 -27.92505787 51.29071837 -27.91235352 48.98684692 C-27.90872089 47.57472811 -27.90536917 46.16260853 -27.90234375 44.75048828 C-27.89710693 43.51662384 -27.89187012 42.2827594 -27.88647461 41.01150513 C-27.86102109 37.94982679 -27.86102109 37.94982679 -29 35 C-29.62044189 35.39904541 -30.24088379 35.79809082 -30.88012695 36.20922852 C-33.68423514 38.00435122 -36.49811168 39.78354222 -39.3125 41.5625 C-40.28896484 42.19091797 -41.26542969 42.81933594 -42.27148438 43.46679688 C-43.20927734 44.05654297 -44.14707031 44.64628906 -45.11328125 45.25390625 C-45.97735596 45.80377197 -46.84143066 46.3536377 -47.73168945 46.92016602 C-50 48 -50 48 -53 47 C-53.24888281 42.99911307 -53.42936435 39.00126335 -53.54931641 34.99438477 C-53.59934038 33.63486228 -53.66739674 32.27587087 -53.75439453 30.91821289 C-54.45722265 19.66056016 -54.45722265 19.66056016 -50.99316406 15.71313477 C-48.41014429 13.92396307 -45.77632502 12.46648346 -43 11 C-41.71419025 10.00193379 -40.45103342 8.97360369 -39.21875 7.91015625 C-25.05708622 -2.93422704 -20.62699947 0 0 0 Z " fill="#00A3FE" transform="translate(385,237)"/>
<path d="M0 0 C0 28.71 0 57.42 0 87 C-8.91 87 -17.82 87 -27 87 C-27.75940742 83.2029629 -28.12255129 80.34898867 -28.11352539 76.56713867 C-28.11344986 75.50641647 -28.11337433 74.44569427 -28.11329651 73.35282898 C-28.10813522 72.2193251 -28.10297394 71.08582123 -28.09765625 69.91796875 C-28.0962413 68.74865311 -28.09482635 67.57933746 -28.09336853 66.37458801 C-28.08777793 62.64553249 -28.07522709 58.91653733 -28.0625 55.1875 C-28.05748379 52.65690191 -28.05292109 50.12630288 -28.04882812 47.59570312 C-28.03781157 41.39711487 -28.02108273 35.19856175 -28 29 C-30.08485667 30.26838823 -32.16789576 31.53960758 -34.25 32.8125 C-34.83652344 33.16892578 -35.42304688 33.52535156 -36.02734375 33.89257812 C-38.53375873 35.42740528 -40.96355298 36.97204488 -43.296875 38.76171875 C-45 40 -45 40 -47 40 C-49.54483521 18.58912682 -49.54483521 18.58912682 -45.51025391 12.89892578 C-41.7606886 9.64737223 -37.47507128 7.6980067 -32.90087891 5.86083984 C-30.24962679 4.6601829 -28.21131789 2.86866323 -26 1 C-17.77199903 -1.74266699 -8.67307455 0 0 0 Z " fill="#0079FE" transform="translate(453,494)"/>
<path d="M0 0 C1.59811523 0.03383789 1.59811523 0.03383789 3.22851562 0.06835938 C5.84132022 0.12694244 8.45115733 0.20891323 11.0625 0.3125 C12.26663915 3.92491746 12.20223896 7.2212984 12.19189453 10.98095703 C12.19364685 11.76007446 12.19539917 12.53919189 12.19720459 13.34191895 C12.2016073 15.91807276 12.19869124 18.49415799 12.1953125 21.0703125 C12.19598586 22.85724908 12.19695615 24.64418556 12.19821167 26.43112183 C12.19968638 30.1752815 12.19754082 33.91941732 12.19287109 37.66357422 C12.1871657 42.47363234 12.19045936 47.28363478 12.19644356 52.09369087 C12.20004824 55.78242415 12.19891116 59.47114411 12.19631577 63.15987778 C12.19564666 64.93418255 12.19647433 66.70848852 12.19879532 68.4827919 C12.20132121 70.95617147 12.19748255 73.42945933 12.19189453 75.90283203 C12.19391876 76.6425827 12.19594299 77.38233337 12.19802856 78.14450073 C12.17676439 83.19823561 12.17676439 83.19823561 11.0625 84.3125 C9.13582493 84.39998207 7.20598139 84.41947334 5.27734375 84.41015625 C3.52260742 84.40532227 3.52260742 84.40532227 1.73242188 84.40039062 C0.50072266 84.39201172 -0.73097656 84.38363281 -2 84.375 C-3.85334961 84.36823242 -3.85334961 84.36823242 -5.74414062 84.36132812 C-8.80864117 84.34949608 -11.87304721 84.33301173 -14.9375 84.3125 C-15.08033563 77.24667184 -15.22270451 70.1808344 -15.36474609 63.11499023 C-15.41314065 60.71036566 -15.46164277 58.30574325 -15.51025391 55.90112305 C-15.58003444 52.44841056 -15.64943043 48.99569052 -15.71875 45.54296875 C-15.74062378 44.46476364 -15.76249756 43.38655853 -15.78503418 42.27568054 C-15.80505493 41.27486954 -15.82507568 40.27405853 -15.84570312 39.24291992 C-15.86346802 38.36133713 -15.88123291 37.47975433 -15.89953613 36.57145691 C-15.92899329 34.81867311 -15.9375 33.06553131 -15.9375 31.3125 C-20.19777993 32.83402855 -23.88891071 35.02176793 -27.6875 37.4375 C-33.81509516 41.3125 -33.81509516 41.3125 -34.9375 41.3125 C-37.47588444 20.11454919 -37.47588444 20.11454919 -33.47998047 14.12939453 C-29.80520232 10.66890604 -25.53923396 8.42433759 -20.96850586 6.35229492 C-18.90332677 5.29500465 -17.40786245 4.07495295 -15.65625 2.56640625 C-10.94114453 -0.93570412 -5.62537364 -0.22697038 0 0 Z " fill="#0079FE" transform="translate(490.9375,437.6875)"/>
<path d="M0 0 C0.7321875 -0.00386719 1.464375 -0.00773437 2.21875 -0.01171875 C7.62328966 -0.00171034 7.62328966 -0.00171034 8.75 1.125 C8.87507482 3.74100453 8.93605405 6.33191934 8.95532227 8.94946289 C8.96522186 9.76890884 8.97512146 10.5883548 8.98532104 11.43263245 C9.01703055 14.15427717 9.04173062 16.87593939 9.06640625 19.59765625 C9.08696763 21.47953253 9.10796388 23.36140411 9.12937927 25.24327087 C9.18468426 30.20643311 9.23405623 35.1696376 9.28222656 40.13287354 C9.33238022 45.19343851 9.38809824 50.2539418 9.44335938 55.31445312 C9.55104395 65.25124945 9.65246589 75.18809923 9.75 85.125 C6.69080612 86.14473129 4.62581975 86.24033602 1.42578125 86.22265625 C0.39775391 86.21943359 -0.63027344 86.21621094 -1.68945312 86.21289062 C-2.76130859 86.20451172 -3.83316406 86.19613281 -4.9375 86.1875 C-6.02095703 86.18298828 -7.10441406 86.17847656 -8.22070312 86.17382812 C-10.89719085 86.16203743 -13.57356777 86.14558063 -16.25 86.125 C-17.52469407 83.57561185 -17.37016184 81.79459002 -17.36352539 78.94091797 C-17.36344986 77.85994843 -17.36337433 76.77897888 -17.36329651 75.66525269 C-17.35813522 74.49439117 -17.35297394 73.32352966 -17.34765625 72.1171875 C-17.3462413 70.92143097 -17.34482635 69.72567444 -17.34336853 68.49368286 C-17.33775663 64.66243013 -17.32520208 60.83123516 -17.3125 57 C-17.30748653 54.40755293 -17.30292336 51.81510494 -17.29882812 49.22265625 C-17.28778333 42.85675102 -17.27103359 36.49087963 -17.25 30.125 C-17.86665024 30.538638 -18.48330048 30.952276 -19.11863708 31.37844849 C-20.33306236 32.19102615 -20.33306236 32.19102615 -21.57202148 33.02001953 C-22.37429672 33.55740753 -23.17657196 34.09479553 -24.00315857 34.64846802 C-26.38489361 36.21364654 -28.80458679 37.64652303 -31.3125 39 C-32.06660156 39.40992188 -32.82070313 39.81984375 -33.59765625 40.2421875 C-34.14292969 40.53351563 -34.68820312 40.82484375 -35.25 41.125 C-36.45986196 36.29546907 -36.54205995 31.51251306 -36.625 26.5625 C-36.66238281 25.71236328 -36.69976562 24.86222656 -36.73828125 23.98632812 C-36.8260108 17.77215158 -36.8260108 17.77215158 -34.2890625 14.921875 C-33.28617187 14.32890625 -32.28328125 13.7359375 -31.25 13.125 C-29.82899621 12.13772384 -28.41274474 11.14358996 -27 10.14453125 C-25.41838179 9.07298491 -23.83500356 8.00403243 -22.25 6.9375 C-21.05890625 6.11862305 -21.05890625 6.11862305 -19.84375 5.28320312 C-19.0703125 4.76306641 -18.296875 4.24292969 -17.5 3.70703125 C-16.45585937 2.99897339 -16.45585937 2.99897339 -15.390625 2.27661133 C-10.56681977 -0.31849466 -5.34888946 -0.02886091 0 0 Z " fill="#0090FE" transform="translate(392.25,411.875)"/>
<path d="M0 0 C0.33 27.72 0.66 55.44 1 84 C-2.39764076 84.84941019 -4.7697327 85.11761783 -8.203125 85.09765625 C-9.1828125 85.09443359 -10.1625 85.09121094 -11.171875 85.08789062 C-12.18765625 85.07951172 -13.2034375 85.07113281 -14.25 85.0625 C-15.796875 85.05573242 -15.796875 85.05573242 -17.375 85.04882812 C-19.91672573 85.03706088 -22.45833319 85.02062011 -25 85 C-25.84477252 82.06722895 -26.11793137 79.48204686 -26.09765625 76.43432617 C-26.09435303 75.53626755 -26.0910498 74.63820892 -26.08764648 73.7129364 C-26.07934814 72.74934708 -26.0710498 71.78575775 -26.0625 70.79296875 C-26.05871338 69.79421219 -26.05492676 68.79545563 -26.05102539 67.76643372 C-26.03470021 63.49812801 -26.00662705 59.22991842 -25.97949219 54.96166992 C-25.9613531 51.84294074 -25.94929038 48.72422737 -25.9375 45.60546875 C-25.92920166 44.64795212 -25.92090332 43.69043549 -25.91235352 42.7039032 C-25.8940878 37.68564971 -26.13523249 32.94560198 -27 28 C-28.60471728 28.95741106 -30.20875329 29.91596405 -31.8125 30.875 C-33.15248047 31.67550781 -33.15248047 31.67550781 -34.51953125 32.4921875 C-36.37294724 33.61883092 -38.19529917 34.79686611 -40 36 C-40.99 36 -41.98 36 -43 36 C-44.07344176 29.08722935 -45.04558223 21.79493466 -43 15 C-39.19487477 9.96124969 -33.555547 6.94133207 -28.01464844 4.10888672 C-20.54953765 0 -20.54953765 0 0 0 Z " fill="#0090FE" transform="translate(534,237)"/>
<path d="M0 0 C0.33 35.64 0.66 71.28 1 108 C-1.70096077 109.35048039 -3.82726517 109.12963577 -6.84765625 109.1328125 C-8.00974609 109.13410156 -9.17183594 109.13539063 -10.36914062 109.13671875 C-11.58794922 109.13285156 -12.80675781 109.12898438 -14.0625 109.125 C-15.28517578 109.12886719 -16.50785156 109.13273437 -17.76757812 109.13671875 C-19.5087793 109.13478516 -19.5087793 109.13478516 -21.28515625 109.1328125 C-22.35644775 109.13168457 -23.42773926 109.13055664 -24.53149414 109.12939453 C-27 109 -27 109 -28 108 C-28.08902051 105.8376871 -28.10685318 103.67242581 -28.09765625 101.50830078 C-28.09619598 100.83022369 -28.09473572 100.15214661 -28.0932312 99.45352173 C-28.08941651 97.97642418 -28.0832909 96.49933125 -28.07516479 95.02225113 C-28.0624482 92.68579445 -28.05589743 90.34939426 -28.05102539 88.01290894 C-28.03762238 82.20759175 -28.01345178 76.40232795 -27.98962402 70.5970459 C-27.96991284 65.6975116 -27.95426143 60.7979973 -27.94406128 55.89843369 C-27.93756827 53.59453517 -27.92505787 51.29071837 -27.91235352 48.98684692 C-27.90872089 47.57472811 -27.90536917 46.16260853 -27.90234375 44.75048828 C-27.89710693 43.51662384 -27.89187012 42.2827594 -27.88647461 41.01150513 C-27.86102109 37.94982679 -27.86102109 37.94982679 -29 35 C-29.78375 35.515625 -30.5675 36.03125 -31.375 36.5625 C-32.24125 37.036875 -33.1075 37.51125 -34 38 C-34.66 37.67 -35.32 37.34 -36 37 C-34.71186658 36.16121545 -33.41936744 35.32913217 -32.125 34.5 C-31.40570313 34.0359375 -30.68640625 33.571875 -29.9453125 33.09375 C-28 32 -28 32 -26 32 C-26 56.75 -26 81.5 -26 107 C-18.08 107 -10.16 107 -2 107 C-2 72.02 -2 37.04 -2 1 C-22.48972308 0.94262356 -22.48972308 0.94262356 -37.8125 9.5625 C-39.73423203 10.96162239 -41.65733267 12.3588676 -43.58203125 13.75390625 C-44.79209839 14.68698608 -44.79209839 14.68698608 -46.02661133 15.63891602 C-48 17 -48 17 -50 17 C-50.33 26.57 -50.66 36.14 -51 46 C-49.35 45.01 -47.7 44.02 -46 43 C-45.34 43.33 -44.68 43.66 -44 44 C-46.8125 46.0625 -46.8125 46.0625 -50 48 C-50.99 47.67 -51.98 47.34 -53 47 C-53.24888281 42.99911307 -53.42936435 39.00126335 -53.54931641 34.99438477 C-53.59934038 33.63486228 -53.66739674 32.27587087 -53.75439453 30.91821289 C-54.45722265 19.66056016 -54.45722265 19.66056016 -50.99316406 15.71313477 C-48.41014429 13.92396307 -45.77632502 12.46648346 -43 11 C-41.71419025 10.00193379 -40.45103342 8.97360369 -39.21875 7.91015625 C-25.05708622 -2.93422704 -20.62699947 0 0 0 Z " fill="#0787F0" transform="translate(385,237)"/>
<path d="M0 0 C2.55930462 2.55930462 2.23563634 4.21804776 2.24884033 7.70651245 C2.2380545 8.90197189 2.2380545 8.90197189 2.22705078 10.12158203 C2.22734283 10.96068115 2.22763489 11.79978027 2.22793579 12.66430664 C2.22653933 15.44557944 2.21096335 18.22658634 2.1953125 21.0078125 C2.19158349 22.93309381 2.18873599 24.85837701 2.18673706 26.78366089 C2.17909176 31.8570477 2.1594356 36.93032044 2.1373291 42.00366211 C2.11688995 47.17820696 2.10773948 52.35277019 2.09765625 57.52734375 C2.07619054 67.68494602 2.04204381 77.84246353 2 88 C-0.79700492 89.39850246 -2.98115359 89.0101384 -6.1015625 88.87890625 C-7.31328125 88.83056641 -8.525 88.78222656 -9.7734375 88.73242188 C-11.04445313 88.67634766 -12.31546875 88.62027344 -13.625 88.5625 C-14.90375 88.51029297 -16.1825 88.45808594 -17.5 88.40429688 C-20.666897 88.2743123 -23.83350287 88.13933598 -27 88 C-27.02536342 80.68596131 -27.04287256 73.37193397 -27.05493164 66.05786133 C-27.05995913 63.56990129 -27.06678202 61.0819442 -27.07543945 58.59399414 C-27.08757426 55.01708243 -27.09324419 51.4402098 -27.09765625 47.86328125 C-27.10281754 46.75165115 -27.10797882 45.64002106 -27.11329651 44.4947052 C-27.11337204 43.45400375 -27.11344757 42.41330231 -27.11352539 41.34106445 C-27.115746 40.4283931 -27.11796661 39.51572174 -27.12025452 38.57539368 C-27 36 -27 36 -26 31 C-56.69 31.495 -56.69 31.495 -88 32 C-89.40912096 29.18175808 -89.11183553 26.82748718 -89.09765625 23.6796875 C-89.09443359 22.42285156 -89.09121094 21.16601562 -89.08789062 19.87109375 C-89.07951172 18.55238281 -89.07113281 17.23367188 -89.0625 15.875 C-89.05748489 14.53515789 -89.05292201 13.195314 -89.04882812 11.85546875 C-89.03701086 8.57026794 -89.02053617 5.28515603 -89 2 C-85.25124998 0.75041666 -81.77561576 0.87657304 -77.87255859 0.90234375 C-77.04467331 0.90380402 -76.21678802 0.90526428 -75.36381531 0.9067688 C-73.56644469 0.91057439 -71.76907784 0.91669053 -69.97172165 0.92483521 C-67.13158163 0.93757561 -64.29148817 0.94410814 -61.45132446 0.94897461 C-55.42586208 0.96041223 -49.40043806 0.97966521 -43.375 1 C-36.38784693 1.02355049 -29.40071555 1.0439507 -22.41353226 1.05593872 C-19.60763915 1.06244964 -16.80181217 1.07495618 -13.99594116 1.08764648 C-12.28684549 1.09127684 -10.57774919 1.09462884 -8.86865234 1.09765625 C-7.6888958 1.10540573 -7.6888958 1.10540573 -6.48530579 1.11331177 C-4.65648045 1.11349278 -2.82776158 1.06236778 -1 1 C-0.67 0.67 -0.34 0.34 0 0 Z M-87 3 C-87 11.91 -87 20.82 -87 30 C-66.54 30 -46.08 30 -25 30 C-25 48.81 -25 67.62 -25 87 C-16.75 87 -8.5 87 0 87 C0 59.28 0 31.56 0 3 C-28.71 3 -57.42 3 -87 3 Z " fill="#0161E2" transform="translate(446,361)"/>
<path d="M0 0 C0.33 0 0.66 0 1 0 C2.0983014 69.34396039 2.0983014 69.34396039 2.125 101.4375 C2.12749756 102.50152039 2.12999512 103.56554077 2.13256836 104.6618042 C2.13832746 107.60660277 2.13706403 110.55129473 2.1328125 113.49609375 C2.13479645 114.35610489 2.1367804 115.21611603 2.13882446 116.10218811 C2.11549268 121.88450732 2.11549268 121.88450732 1 123 C-0.92667507 123.08748207 -2.85651861 123.10697334 -4.78515625 123.09765625 C-6.53989258 123.09282227 -6.53989258 123.09282227 -8.33007812 123.08789062 C-9.56177734 123.07951172 -10.79347656 123.07113281 -12.0625 123.0625 C-13.91584961 123.05573242 -13.91584961 123.05573242 -15.80664062 123.04882812 C-18.87114117 123.03699608 -21.93554721 123.02051173 -25 123 C-26.65875797 119.68248407 -26.12889303 115.97402946 -26.11352539 112.32763672 C-26.11367142 111.43001617 -26.11381744 110.53239563 -26.1139679 109.60757446 C-26.11326953 106.63158782 -26.10548067 103.65566325 -26.09765625 100.6796875 C-26.0957918 98.61988357 -26.09436802 96.56007919 -26.09336853 94.50027466 C-26.08954548 89.07182598 -26.07971699 83.64340395 -26.06866455 78.21496582 C-26.05844588 72.67847046 -26.05386993 67.14197081 -26.04882812 61.60546875 C-26.03809455 50.73696744 -26.02102065 39.86848594 -26 29 C-27.09699219 29.62261719 -28.19398438 30.24523437 -29.32421875 30.88671875 C-29.94127686 31.23694092 -30.55833496 31.58716309 -31.1940918 31.94799805 C-32.75940572 32.85984578 -34.28977269 33.83118684 -35.8125 34.8125 C-36.8953125 35.4003125 -36.8953125 35.4003125 -38 36 C-38.66 35.67 -39.32 35.34 -40 35 C-37.71180854 33.49445366 -35.41978831 31.99542957 -33.125 30.5 C-32.47402344 30.07074219 -31.82304687 29.64148438 -31.15234375 29.19921875 C-26.2265625 26 -26.2265625 26 -24 26 C-24 57.35 -24 88.7 -24 121 C-16.08 121 -8.16 121 0 121 C0 81.07 0 41.14 0 0 Z " fill="#053CCC" transform="translate(450,608)"/>
<path d="M0 0 C1.20413915 3.61241746 1.13973896 6.9087984 1.12939453 10.66845703 C1.13114685 11.44757446 1.13289917 12.22669189 1.13470459 13.02941895 C1.1391073 15.60557276 1.13619124 18.18165799 1.1328125 20.7578125 C1.13348586 22.54474908 1.13445615 24.33168556 1.13571167 26.11862183 C1.13718638 29.8627815 1.13504082 33.60691732 1.13037109 37.35107422 C1.1246657 42.16113234 1.12795936 46.97113478 1.13394356 51.78119087 C1.13754824 55.46992415 1.13641116 59.15864411 1.13381577 62.84737778 C1.13314666 64.62168255 1.13397433 66.39598852 1.13629532 68.1702919 C1.13882121 70.64367147 1.13498255 73.11695933 1.12939453 75.59033203 C1.13141876 76.3300827 1.13344299 77.06983337 1.13552856 77.83200073 C1.11426439 82.88573561 1.11426439 82.88573561 0 84 C-1.92667507 84.08748207 -3.85651861 84.10697334 -5.78515625 84.09765625 C-7.53989258 84.09282227 -7.53989258 84.09282227 -9.33007812 84.08789062 C-10.56177734 84.07951172 -11.79347656 84.07113281 -13.0625 84.0625 C-14.91584961 84.05573242 -14.91584961 84.05573242 -16.80664062 84.04882812 C-19.87114117 84.03699608 -22.93554721 84.02051173 -26 84 C-26.14283563 76.93417184 -26.28520451 69.8683344 -26.42724609 62.80249023 C-26.47564065 60.39786566 -26.52414277 57.99324325 -26.57275391 55.58862305 C-26.64253444 52.13591056 -26.71193043 48.68319052 -26.78125 45.23046875 C-26.80312378 44.15226364 -26.82499756 43.07405853 -26.84753418 41.96318054 C-26.87756531 40.46196404 -26.87756531 40.46196404 -26.90820312 38.93041992 C-26.92596802 38.04883713 -26.94373291 37.16725433 -26.96203613 36.25895691 C-26.99149329 34.50617311 -27 32.75303131 -27 31 C-29.31 31.66 -31.62 32.32 -34 33 C-30.58452396 28.92770164 -29.78841501 28.96473584 -24 28 C-24 45.82 -24 63.64 -24 82 C-16.41 82 -8.82 82 -1 82 C-1 55.27 -1 28.54 -1 1 C-21.41602706 1.48061844 -21.41602706 1.48061844 -36 12 C-36.66 11.67 -37.32 11.34 -38 11 C-26.15172029 -0.53007947 -16.14932798 -1.50485723 0 0 Z " fill="#034FDB" transform="translate(502,438)"/>
<path d="M0 0 C0.7321875 -0.00386719 1.464375 -0.00773437 2.21875 -0.01171875 C7.62328966 -0.00171034 7.62328966 -0.00171034 8.75 1.125 C8.87507482 3.74100453 8.93605405 6.33191934 8.95532227 8.94946289 C8.96522186 9.76890884 8.97512146 10.5883548 8.98532104 11.43263245 C9.01703055 14.15427717 9.04173062 16.87593939 9.06640625 19.59765625 C9.08696763 21.47953253 9.10796388 23.36140411 9.12937927 25.24327087 C9.18468426 30.20643311 9.23405623 35.1696376 9.28222656 40.13287354 C9.33238022 45.19343851 9.38809824 50.2539418 9.44335938 55.31445312 C9.55104395 65.25124945 9.65246589 75.18809923 9.75 85.125 C6.69080612 86.14473129 4.62581975 86.24033602 1.42578125 86.22265625 C0.39775391 86.21943359 -0.63027344 86.21621094 -1.68945312 86.21289062 C-2.76130859 86.20451172 -3.83316406 86.19613281 -4.9375 86.1875 C-6.02095703 86.18298828 -7.10441406 86.17847656 -8.22070312 86.17382812 C-10.89719085 86.16203743 -13.57356777 86.14558063 -16.25 86.125 C-17.54663922 83.53172157 -17.37003569 81.66091932 -17.36352539 78.75732422 C-17.36344986 77.63631317 -17.36337433 76.51530212 -17.36329651 75.36032104 C-17.35813522 74.14571198 -17.35297394 72.93110291 -17.34765625 71.6796875 C-17.3462413 70.43953888 -17.34482635 69.19939026 -17.34336853 67.92166138 C-17.33871096 64.62381867 -17.32972439 61.32602454 -17.31866455 58.02819824 C-17.30843731 54.66333613 -17.30386809 51.29846692 -17.29882812 47.93359375 C-17.28778269 41.33071007 -17.27103247 34.72785901 -17.25 28.125 C-16.59 28.125 -15.93 28.125 -15.25 28.125 C-15.25 46.605 -15.25 65.085 -15.25 84.125 C-7.99 84.125 -0.73 84.125 6.75 84.125 C6.75 57.065 6.75 30.005 6.75 2.125 C0.15 2.125 -6.45 2.125 -13.25 2.125 C-13.25 1.795 -13.25 1.465 -13.25 1.125 C-8.83635658 0.03027742 -4.51875116 -0.02438175 0 0 Z " fill="#047AF4" transform="translate(392.25,411.875)"/>
<path d="M0 0 C0 28.71 0 57.42 0 87 C-8.91 87 -17.82 87 -27 87 C-27.75940742 83.2029629 -28.12255129 80.34898867 -28.11352539 76.56713867 C-28.11344986 75.50641647 -28.11337433 74.44569427 -28.11329651 73.35282898 C-28.10813522 72.2193251 -28.10297394 71.08582123 -28.09765625 69.91796875 C-28.0962413 68.74865311 -28.09482635 67.57933746 -28.09336853 66.37458801 C-28.08777793 62.64553249 -28.07522709 58.91653733 -28.0625 55.1875 C-28.05748379 52.65690191 -28.05292109 50.12630288 -28.04882812 47.59570312 C-28.03781157 41.39711487 -28.02108273 35.19856175 -28 29 C-29.32 29.33 -30.64 29.66 -32 30 C-30.71034824 28.62437146 -29.37310707 27.29233607 -28 26 C-27.34 26 -26.68 26 -26 26 C-25.26311733 46.01341973 -24.85917121 65.97101621 -25 86 C-17.08 86 -9.16 86 -1 86 C-1 58.28 -1 30.56 -1 2 C-19.69575395 1.28669179 -19.69575395 1.28669179 -33.20703125 8.6015625 C-33.79871094 9.06304687 -34.39039063 9.52453125 -35 10 C-35.66 9.67 -36.32 9.34 -37 9 C-35.23268551 7.6827656 -33.46102239 6.37136412 -31.6875 5.0625 C-30.70136719 4.33160156 -29.71523438 3.60070312 -28.69921875 2.84765625 C-19.701362 -3.31151342 -13.23262543 0 0 0 Z " fill="#0455DF" transform="translate(453,494)"/>
<path d="M0 0 C0.33 27.72 0.66 55.44 1 84 C-2.39764076 84.84941019 -4.7697327 85.11761783 -8.203125 85.09765625 C-9.1828125 85.09443359 -10.1625 85.09121094 -11.171875 85.08789062 C-12.18765625 85.07951172 -13.2034375 85.07113281 -14.25 85.0625 C-15.796875 85.05573242 -15.796875 85.05573242 -17.375 85.04882812 C-19.91672573 85.03706088 -22.45833319 85.02062011 -25 85 C-25.84477252 82.06722895 -26.11793137 79.48204686 -26.09765625 76.43432617 C-26.09435303 75.53626755 -26.0910498 74.63820892 -26.08764648 73.7129364 C-26.07934814 72.74934708 -26.0710498 71.78575775 -26.0625 70.79296875 C-26.05871338 69.79421219 -26.05492676 68.79545563 -26.05102539 67.76643372 C-26.03470021 63.49812801 -26.00662705 59.22991842 -25.97949219 54.96166992 C-25.9613531 51.84294074 -25.94929038 48.72422737 -25.9375 45.60546875 C-25.92920166 44.64795212 -25.92090332 43.69043549 -25.91235352 42.7039032 C-25.8940878 37.68564971 -26.13523249 32.94560198 -27 28 C-28.670625 29.0209375 -28.670625 29.0209375 -30.375 30.0625 C-32.2734375 31.22265625 -32.2734375 31.22265625 -34 32 C-34.66 31.67 -35.32 31.34 -36 31 C-34.56839732 29.99157547 -33.12948547 28.99352109 -31.6875 28 C-30.88699219 27.443125 -30.08648437 26.88625 -29.26171875 26.3125 C-27 25 -27 25 -24 25 C-24 44.14 -24 63.28 -24 83 C-16.41 83 -8.82 83 -1 83 C-1 55.94 -1 28.88 -1 1 C-18.1472497 0.53831343 -18.1472497 0.53831343 -29.80859375 8.08984375 C-32.11655341 10.10159469 -34.11754872 11.02901553 -37 12 C-35.39198572 10.23118429 -33.74565655 8.62874191 -32 7 C-31.41089844 6.37609375 -30.82179688 5.7521875 -30.21484375 5.109375 C-20.72957136 -3.36023301 -14.3467759 0 0 0 Z " fill="#0367E3" transform="translate(534,237)"/>
<path d="M0 0 C4.68098928 1.34745119 8.28604144 3.27223729 12.3125 6 C13.36050781 6.70125 14.40851562 7.4025 15.48828125 8.125 C18 10 18 10 19 12 C15.04093183 10.56691865 11.71281819 8.66858051 8.1875 6.375 C7.21167969 5.74335938 6.23585938 5.11171875 5.23046875 4.4609375 C4.49441406 3.97882813 3.75835938 3.49671875 3 3 C3.24121582 4.02782593 3.24121582 4.02782593 3.48730469 5.07641602 C4.40222639 10.29364813 4.22532823 15.56793505 4.24023438 20.8527832 C4.2498259 22.90033422 4.28083162 24.94682959 4.3125 26.99414062 C4.43683976 42.21454672 2.05746264 55.82731762 -8.2578125 67.5703125 C-16.93140361 76.02078872 -27.46423477 79.20689149 -39 82 C-38.40832031 82.37511719 -37.81664062 82.75023437 -37.20703125 83.13671875 C-29.5309425 88.10801929 -23.1503898 93.66801447 -19 102 C-19.33 102.99 -19.66 103.98 -20 105 C-20.37511719 104.33613281 -20.75023437 103.67226563 -21.13671875 102.98828125 C-27.24632087 92.44652444 -34.9853498 86.08368471 -46 81 C-42.34123334 78.79535855 -38.52020625 78.33192282 -34.375 77.6875 C-22.94515235 75.69992487 -13.41321839 71.1807999 -6.27734375 61.71484375 C1.17672449 50.15829078 1.45941798 38.52962172 1.33618164 25.19018555 C1.31228328 22.41230942 1.31567643 19.63537679 1.32226562 16.85742188 C1.31669748 15.09114009 1.30959307 13.32486233 1.30078125 11.55859375 C1.30169266 10.72847275 1.30260406 9.89835175 1.30354309 9.04307556 C1.43641297 4.54796125 1.43641297 4.54796125 -1 1 C-0.67 0.67 -0.34 0.34 0 0 Z " fill="#045EE5" transform="translate(635,259)"/>
<path d="M0 0 C0 35.31 0 70.62 0 107 C-0.33 107 -0.66 107 -1 107 C-1 72.02 -1 37.04 -1 1 C-21.48972308 0.94262356 -21.48972308 0.94262356 -36.8125 9.5625 C-38.73423203 10.96162239 -40.65733267 12.3588676 -42.58203125 13.75390625 C-43.79209839 14.68698608 -43.79209839 14.68698608 -45.02661133 15.63891602 C-47 17 -47 17 -49 17 C-49.33 26.57 -49.66 36.14 -50 46 C-48.35 45.01 -46.7 44.02 -45 43 C-44.34 43.33 -43.68 43.66 -43 44 C-45.8125 46.0625 -45.8125 46.0625 -49 48 C-49.99 47.67 -50.98 47.34 -52 47 C-52.24888281 42.99911307 -52.42936435 39.00126335 -52.54931641 34.99438477 C-52.59934038 33.63486228 -52.66739674 32.27587087 -52.75439453 30.91821289 C-53.45711657 19.66225928 -53.45711657 19.66225928 -49.99536133 15.71313477 C-47.41183855 13.92242084 -44.77847369 12.4652028 -42 11 C-40.70311667 10.00139354 -39.42835537 8.97302489 -38.18359375 7.91015625 C-24.25369865 -2.6788881 -20.16512491 0 0 0 Z " fill="#027AEE" transform="translate(384,237)"/>
<path d="M0 0 C3.78868026 3.29194218 5.8061227 7.07479372 7.875 11.5625 C8.39054443 12.67492065 8.39054443 12.67492065 8.91650391 13.80981445 C11.40080551 19.33118917 13.51154804 24.92822095 15.375 30.6875 C15.73247314 31.77043335 15.73247314 31.77043335 16.09716797 32.87524414 C19.70527648 44.60745834 20.36596617 56.67370595 20.3125 68.875 C20.30621582 70.84509033 20.30621582 70.84509033 20.29980469 72.85498047 C20.19022425 82.26607479 19.51932028 90.91949343 17 100 C16.61714844 101.49466797 16.61714844 101.49466797 16.2265625 103.01953125 C13.54314524 112.21454361 8.88912173 120.79797918 4 129 C3.34 129.33 2.68 129.66 2 130 C1.75 127.75 1.75 127.75 2 125 C2.90298828 124.11441406 2.90298828 124.11441406 3.82421875 123.2109375 C11.78706644 115.1194262 15.06484138 100.98658757 15.7890625 89.93359375 C16 88 16 88 17 87 C18.13745182 79.66975497 18.18814257 72.39609992 18.03710938 64.98828125 C18.00141423 63.07577314 17.9923451 61.16282458 17.984375 59.25 C17.4378596 40.20003464 11.13021539 20.42855801 1.26171875 4.12890625 C0 2 0 2 0 0 Z " fill="#0558E1" transform="translate(686,305)"/>
<path d="M0 0 C0.33 0 0.66 0 1 0 C1 26.4 1 52.8 1 80 C23.10865484 79.96045217 23.10865484 79.96045217 45.21728516 79.90991211 C49.5065918 79.90539551 49.5065918 79.90539551 51.51864624 79.90455627 C52.91505248 79.90302709 54.31145746 79.89952336 55.70785522 79.89442444 C57.83081331 79.88706427 59.95369115 79.88609537 62.07666016 79.88647461 C63.27134918 79.884254 64.46603821 79.88203339 65.69692993 79.87974548 C68.88452274 79.99579583 71.8708604 80.39922379 75 81 C75 81.33 75 81.66 75 82 C50.25 82 25.5 82 0 82 C-1.23700098 79.52599805 -1.12694078 77.88803959 -1.12939453 75.12084961 C-1.13254669 74.10055161 -1.13569885 73.0802536 -1.13894653 72.02903748 C-1.1369223 70.91472855 -1.13489807 69.80041962 -1.1328125 68.65234375 C-1.13376923 67.49368301 -1.13472595 66.33502228 -1.13571167 65.14125061 C-1.13639439 62.66879218 -1.13453375 60.19633198 -1.13037109 57.72387695 C-1.125135 54.0326707 -1.13025386 50.34159249 -1.13671875 46.65039062 C-1.14064795 31.07778402 -0.76098717 15.5539521 0 0 Z " fill="#0746D2" transform="translate(518,440)"/>
<path d="M0 0 C2.55930462 2.55930462 2.23563634 4.21804776 2.24884033 7.70651245 C2.24164978 8.50348541 2.23445923 9.30045837 2.22705078 10.12158203 C2.22734283 10.96068115 2.22763489 11.79978027 2.22793579 12.66430664 C2.22653933 15.44557944 2.21096335 18.22658634 2.1953125 21.0078125 C2.19158349 22.93309381 2.18873599 24.85837701 2.18673706 26.78366089 C2.17909176 31.8570477 2.1594356 36.93032044 2.1373291 42.00366211 C2.11688995 47.17820696 2.10773948 52.35277019 2.09765625 57.52734375 C2.07619054 67.68494602 2.04204381 77.84246353 2 88 C1.34 87.67 0.68 87.34 0 87 C0 59.28 0 31.56 0 3 C-1.32 2.67 -2.64 2.34 -4 2 C-2.68 1.34 -1.36 0.68 0 0 Z " fill="#0375EE" transform="translate(446,361)"/>
<path d="M0 0 C0 17.82 0 35.64 0 54 C7.92 54.33 15.84 54.66 24 55 C24 55.33 24 55.66 24 56 C15.42 56 6.84 56 -2 56 C-2.14269259 48.93416881 -2.28520451 41.86833447 -2.42724609 34.80249023 C-2.47564065 32.39786566 -2.52414277 29.99324325 -2.57275391 27.58862305 C-2.64253444 24.13591056 -2.71193043 20.68319052 -2.78125 17.23046875 C-2.80312378 16.15226364 -2.82499756 15.07405853 -2.84753418 13.96318054 C-2.86755493 12.96236954 -2.88757568 11.96155853 -2.90820312 10.93041992 C-2.92596802 10.04883713 -2.94373291 9.16725433 -2.96203613 8.25895691 C-2.99149329 6.50617311 -3 4.75303131 -3 3 C-5.31 3.66 -7.62 4.32 -10 5 C-5.16129032 0 -5.16129032 0 0 0 Z " fill="#0663ED" transform="translate(478,466)"/>
<path d="M0 0 C-2.91544897 1.5216893 -5.85775151 2.72661921 -8.9375 3.875 C-12.88278053 5.42057381 -15.79050321 7.19169031 -19 10 C-19.66 10 -20.32 10 -21 10 C-21.27714844 10.556875 -21.55429687 11.11375 -21.83984375 11.6875 C-22.63627621 13.27500173 -23.44144722 14.8581404 -24.25390625 16.4375 C-24.68574219 17.283125 -25.11757813 18.12875 -25.5625 19 C-25.99691406 19.845625 -26.43132812 20.69125 -26.87890625 21.5625 C-28.62253204 25.35351915 -29.12685344 28.61858458 -29.16113281 32.77758789 C-29.17074036 33.722798 -29.1803479 34.66800812 -29.19024658 35.64186096 C-29.19449646 36.65852341 -29.19874634 37.67518585 -29.203125 38.72265625 C-29.20882507 39.77851425 -29.21452515 40.83437225 -29.22039795 41.92222595 C-29.22984254 44.15899659 -29.23637978 46.39578111 -29.24023438 48.63256836 C-29.2498946 52.02548152 -29.28090491 55.41777699 -29.3125 58.81054688 C-29.31903512 60.98957976 -29.32428359 63.16861695 -29.328125 65.34765625 C-29.3404718 66.35014908 -29.3528186 67.35264191 -29.36553955 68.38551331 C-29.34397487 75.33596158 -28.13391322 81.39154572 -26 88 C-31.51772759 82.88313296 -31.45095962 76.12402112 -31.83984375 69.00390625 C-32.08159352 62.46284808 -32.14678356 55.91995956 -32.1875 49.375 C-32.20055176 48.16062256 -32.21360352 46.94624512 -32.22705078 45.69506836 C-32.23962088 32.42194667 -31.7205748 18.92724411 -21.95703125 8.90234375 C-15.67914757 3.66892213 -8.32567508 -0.36904588 0 0 Z " fill="#065BE1" transform="translate(352,520)"/>
<path d="M0 0 C0.66 0.33 1.32 0.66 2 1 C-0.51712189 2.29935464 -3.03829087 3.58954372 -5.5625 4.875 C-6.26697266 5.23980469 -6.97144531 5.60460937 -7.69726562 5.98046875 C-12.07465515 8.19942197 -16.23641861 9.81066956 -21 11 C-19.73285156 11.32613281 -18.46570313 11.65226562 -17.16015625 11.98828125 C-15.46089549 12.42952576 -13.76167911 12.87094117 -12.0625 13.3125 C-11.23169922 13.52583984 -10.40089844 13.73917969 -9.54492188 13.95898438 C-0.64459876 16.27930207 7.17486057 18.91082267 15.125 23.5625 C16.76855469 24.52349609 16.76855469 24.52349609 18.4453125 25.50390625 C19.28835938 25.99761719 20.13140625 26.49132812 21 27 C20.01 27.495 20.01 27.495 19 28 C16.42878399 26.85521832 13.94360339 25.64927105 11.4375 24.375 C-0.16508551 18.70196396 -12.03456697 15.04463914 -24.875 13.45703125 C-25.57625 13.30621094 -26.2775 13.15539062 -27 13 C-27.33 12.34 -27.66 11.68 -28 11 C-26.90042969 10.62488281 -25.80085937 10.24976563 -24.66796875 9.86328125 C-16.91291963 7.18752146 -9.35952125 4.45734877 -2.00390625 0.78515625 C-1.01197266 0.39650391 -1.01197266 0.39650391 0 0 Z " fill="#0455E4" transform="translate(658,461)"/>
<path d="M0 0 C0.66 0.33 1.32 0.66 2 1 C-9.96893478 9.51635744 -24.64148027 10.91158606 -39 9 C-43.42177638 7.80217896 -47.35209962 5.77182982 -51 3 C-51.33 2.34 -51.66 1.68 -52 1 C-51.38125 1.268125 -50.7625 1.53625 -50.125 1.8125 C-41.80807878 4.97293006 -34.49237066 6.52807568 -25.5625 6.4375 C-24.55348633 6.43282715 -23.54447266 6.4281543 -22.50488281 6.42333984 C-13.93611303 6.25274116 -7.18000515 4.7866701 0 0 Z " fill="#0743D3" transform="translate(387,727)"/>
<path d="M0 0 C0.66 0 1.32 0 2 0 C2 18.48 2 36.96 2 56 C9.59 56 17.18 56 25 56 C24.67 56.66 24.34 57.32 24 58 C16.41 58 8.82 58 1 58 C-0.29663922 55.40672157 -0.12003569 53.53591932 -0.11352539 50.63232422 C-0.11344986 49.51131317 -0.11337433 48.39030212 -0.11329651 47.23532104 C-0.10813522 46.02071198 -0.10297394 44.80610291 -0.09765625 43.5546875 C-0.0962413 42.31453888 -0.09482635 41.07439026 -0.09336853 39.79666138 C-0.08871096 36.49881867 -0.07972439 33.20102454 -0.06866455 29.90319824 C-0.05843731 26.53833613 -0.05386809 23.17346692 -0.04882812 19.80859375 C-0.03778269 13.20571007 -0.02103247 6.60285901 0 0 Z " fill="#035DE3" transform="translate(375,440)"/>
<path d="M0 0 C0.33 0 0.66 0 1 0 C0.98952637 1.16982422 0.97905273 2.33964844 0.96826172 3.54492188 C0.93187493 7.91337994 0.9090319 12.28182478 0.89013672 16.65039062 C0.88012153 18.53583026 0.86650548 20.42125453 0.84912109 22.30664062 C0.82467468 25.02738249 0.81347184 27.74791777 0.8046875 30.46875 C0.79436493 31.30241089 0.78404236 32.13607178 0.77340698 32.99499512 C0.77225229 39.11180467 0.92568714 45.45729392 4.9375 50.375 C9.4100455 52.74818741 14.01792527 53.33688673 19 54 C19 54.33 19 54.66 19 55 C17.25181409 55.22304441 15.50129677 55.4278645 13.75 55.625 C12.77546875 55.74101562 11.8009375 55.85703125 10.796875 55.9765625 C7.83767581 56.00136026 6.44302171 55.61563678 4 54 C2.9375 52.3125 2.9375 52.3125 2 50 C1.49243164 48.99493408 0.98486328 47.98986816 0.46191406 46.9543457 C-1.45600119 42.46318629 -1.39780934 38.24025579 -1.328125 33.41796875 C-1.32625183 32.52257889 -1.32437866 31.62718903 -1.32244873 30.70466614 C-1.31576032 28.82463825 -1.3019103 26.94462352 -1.28125 25.06469727 C-1.24990842 22.17906851 -1.24025585 19.29398577 -1.234375 16.40820312 C-1.22521152 14.5781183 -1.21483785 12.74803904 -1.203125 10.91796875 C-1.19887512 10.05342575 -1.19462524 9.18888275 -1.19024658 8.29814148 C-1.11725296 2.23450591 -1.11725296 2.23450591 0 0 Z " fill="#027BEF" transform="translate(428,266)"/>
<path d="M0 0 C0.66 0.33 1.32 0.66 2 1 C0.75492297 2.00612285 -0.49653833 3.00434251 -1.75 4 C-2.55824219 4.65871094 -3.36648438 5.31742188 -4.19921875 5.99609375 C-7 8 -7 8 -10.26953125 9.47265625 C-14.11120685 11.32741541 -16.34484733 12.62271626 -19 16 C-20.51633142 23.18962311 -19.73001523 30.74477171 -19 38 C-17.35 37.34 -15.7 36.68 -14 36 C-16.3125 38.5 -16.3125 38.5 -19 41 C-19.99 41 -20.98 41 -22 41 C-23.62474442 17.74951578 -23.62474442 17.74951578 -19.46289062 11.80419922 C-15.73594067 8.53029593 -11.48923295 6.61095565 -6.89648438 4.83251953 C-4.22169065 3.65833742 -2.16290465 1.93724728 0 0 Z " fill="#0447DA" transform="translate(424,608)"/>
<path d="M0 0 C4.68098928 1.34745119 8.28604144 3.27223729 12.3125 6 C13.36050781 6.70125 14.40851562 7.4025 15.48828125 8.125 C18 10 18 10 19 12 C15.04093183 10.56691865 11.71281819 8.66858051 8.1875 6.375 C7.21167969 5.74335938 6.23585938 5.11171875 5.23046875 4.4609375 C4.49441406 3.97882813 3.75835938 3.49671875 3 3 C3.07726318 3.57540527 3.15452637 4.15081055 3.23413086 4.74365234 C4.06927131 11.77107065 3.93546706 18.56863469 3.5625 25.625 C3.51029297 26.72457031 3.45808594 27.82414062 3.40429688 28.95703125 C3.27605696 31.63841122 3.14117502 34.31927531 3 37 C2.67 37 2.34 37 2 37 C1.98018066 35.9805127 1.96036133 34.96102539 1.93994141 33.91064453 C1.86397192 30.13467352 1.77524191 26.35909227 1.68261719 22.58349609 C1.64429148 20.9481576 1.60944493 19.31273376 1.578125 17.67724609 C1.53255158 15.3287909 1.47454633 12.98092505 1.4140625 10.6328125 C1.39673569 9.53273361 1.39673569 9.53273361 1.37905884 8.41043091 C1.38131903 4.25022895 1.38131903 4.25022895 -1 1 C-0.67 0.67 -0.34 0.34 0 0 Z " fill="#0770EA" transform="translate(635,259)"/>
<path d="M0 0 C0.66 0.33 1.32 0.66 2 1 C1.02208496 1.59808472 1.02208496 1.59808472 0.02441406 2.20825195 C-2.18546317 3.80451991 -2.18546317 3.80451991 -2.45410156 6.17651367 C-2.4331543 6.99869385 -2.41220703 7.82087402 -2.390625 8.66796875 C-2.37773437 9.56064453 -2.36484375 10.45332031 -2.3515625 11.37304688 C-2.31804687 12.30181641 -2.28453125 13.23058594 -2.25 14.1875 C-2.23195313 15.12787109 -2.21390625 16.06824219 -2.1953125 17.03710938 C-2.1481655 19.35909889 -2.08238231 21.6790369 -2 24 C-1.26394531 23.59007812 -0.52789062 23.18015625 0.23046875 22.7578125 C1.20628906 22.21898437 2.18210937 21.68015625 3.1875 21.125 C4.15042969 20.59132813 5.11335938 20.05765625 6.10546875 19.5078125 C8.69739518 18.1576322 11.26761098 17.02901671 14 16 C9.33833921 21.49410022 3.24057917 24.54628234 -3 28 C-5.62405868 23.40379824 -5.40419781 19.18034108 -5.4375 14 C-5.47037109 13.09765625 -5.50324219 12.1953125 -5.53710938 11.265625 C-5.59122704 4.61407198 -5.59122704 4.61407198 -2.47265625 1.375 C-1.65667969 0.92125 -0.84070313 0.4675 0 0 Z " fill="#0571E9" transform="translate(361,425)"/>
<path d="M0 0 C0.66 0.33 1.32 0.66 2 1 C1.67 1.33 1.34 1.66 1 2 C0.84313751 3.55948542 0.74923361 5.12542668 0.68359375 6.69140625 C0.64169922 7.63564453 0.59980469 8.57988281 0.55664062 9.55273438 C0.51732422 10.54595703 0.47800781 11.53917969 0.4375 12.5625 C0.39431641 13.55958984 0.35113281 14.55667969 0.30664062 15.58398438 C0.20019702 18.0558415 0.09818072 20.5278031 0 23 C1.65 22.34 3.3 21.68 5 21 C3.37660195 22.70884005 1.70680947 24.37446717 0 26 C-0.66 26 -1.32 26 -2 26 C-2 17.75 -2 9.5 -2 1 C-1.34 0.67 -0.68 0.34 0 0 Z " fill="#0762E8" transform="translate(408,508)"/>
<path d="M0 0 C0.66 0.33 1.32 0.66 2 1 C0.02 1.99 0.02 1.99 -2 3 C-1.67 8.94 -1.34 14.88 -1 21 C0.32 20.67 1.64 20.34 3 20 C1.1875 22 1.1875 22 -1 24 C-1.99 24 -2.98 24 -4 24 C-4.11604679 20.5627834 -4.18719508 17.12606914 -4.25 13.6875 C-4.28351563 12.71103516 -4.31703125 11.73457031 -4.3515625 10.72851562 C-4.36445313 9.79072266 -4.37734375 8.85292969 -4.390625 7.88671875 C-4.41157227 7.02264404 -4.43251953 6.15856934 -4.45410156 5.26831055 C-4 3 -4 3 -1.97558594 1.19458008 C-0.9976709 0.60326294 -0.9976709 0.60326294 0 0 Z " fill="#057BEF" transform="translate(495,249)"/>
<path d="M0 0 C0.66 0.33 1.32 0.66 2 1 C-4.27778903 8.97946079 -10.18111006 13.26139804 -20 16 C-19.34 15.01 -18.68 14.02 -18 13 C-17.34 13 -16.68 13 -16 13 C-16 12.34 -16 11.68 -16 11 C-14.824375 10.505 -14.824375 10.505 -13.625 10 C-8.54408365 7.49618305 -4.3280098 3.60097258 0 0 Z " fill="#0399F8" transform="translate(688,683)"/>
<path d="M0 0 C11.22 0.33 22.44 0.66 34 1 C34 1.33 34 1.66 34 2 C24.1 2.33 14.2 2.66 4 3 C4.99 3.99 5.98 4.98 7 6 C6.67 6.66 6.34 7.32 6 8 C4.99403703 7.0479279 3.99538437 6.08812654 3 5.125 C2.443125 4.59132813 1.88625 4.05765625 1.3125 3.5078125 C0 2 0 2 0 0 Z " fill="#0453E1" transform="translate(536,641)"/>
<path d="M0 0 C0.33 0 0.66 0 1 0 C0.67 2.31 0.34 4.62 0 7 C0.93005859 6.89171875 0.93005859 6.89171875 1.87890625 6.78125 C9.94799438 5.93558138 17.89625007 5.90157389 26 6 C26 6.33 26 6.66 26 7 C22.14697307 7.36736177 18.2925001 7.71650983 14.4375 8.0625 C13.35146484 8.16626953 12.26542969 8.27003906 11.14648438 8.37695312 C5.5472439 8.8705032 0.51895858 9.1322971 -5 8 C-4.01 7.34 -3.02 6.68 -2 6 C-0.78715124 2.94570927 -0.78715124 2.94570927 0 0 Z " fill="#0558DF" transform="translate(549,720)"/>
<path d="M0 0 C4.78654812 -0.22924081 7.84074833 0.63335525 12.0390625 3.15234375 C11.0490625 3.64734375 11.0490625 3.64734375 10.0390625 4.15234375 C9.3790625 3.82234375 8.7190625 3.49234375 8.0390625 3.15234375 C1.39745032 2.63533202 -4.30572757 2.3822038 -9.9609375 6.15234375 C-9.3359375 3.71484375 -9.3359375 3.71484375 -7.9609375 1.15234375 C-5.26130263 0.31674248 -2.79874018 0.21743201 0 0 Z " fill="#0366EB" transform="translate(358.9609375,539.84765625)"/>
<path d="M0 0 C0.66 0 1.32 0 2 0 C2 9.9 2 19.8 2 30 C1.01 30 0.02 30 -1 30 C-1.02465746 25.8882744 -1.04283959 21.77657722 -1.05493164 17.66479492 C-1.0599708 16.26504772 -1.06680216 14.8653058 -1.07543945 13.46557617 C-1.0875232 11.45754223 -1.09269807 9.44947043 -1.09765625 7.44140625 C-1.10289307 6.23170166 -1.10812988 5.02199707 -1.11352539 3.77563477 C-1 1 -1 1 0 0 Z " fill="#0873E6" transform="translate(358,362)"/>
<path d="M0 0 C2.61109045 3.82959933 1.86230768 6.8261539 1.125 11.25 C0.92132812 12.51328125 0.71765625 13.7765625 0.5078125 15.078125 C0.34023438 16.04234375 0.17265625 17.0065625 0 18 C-0.66 17.67 -1.32 17.34 -2 17 C-2.04241723 14.66705225 -2.04092937 12.33297433 -2 10 C-1.67 9.67 -1.34 9.34 -1 9 C-0.76807135 7.48530552 -0.58784762 5.96245438 -0.4375 4.4375 C-0.35371094 3.61121094 -0.26992188 2.78492188 -0.18359375 1.93359375 C-0.12300781 1.29550781 -0.06242188 0.65742188 0 0 Z " fill="#0662EB" transform="translate(704,383)"/>
<path d="M0 0 C-0.33 3.3 -0.66 6.6 -1 10 C-1.33 10 -1.66 10 -2 10 C-2.33 7.69 -2.66 5.38 -3 3 C-4.11375 3.680625 -5.2275 4.36125 -6.375 5.0625 C-8.2734375 6.22265625 -8.2734375 6.22265625 -10 7 C-10.66 6.67 -11.32 6.34 -12 6 C-10.56839732 4.99157547 -9.12948547 3.99352109 -7.6875 3 C-6.88699219 2.443125 -6.08648437 1.88625 -5.26171875 1.3125 C-3 0 -3 0 0 0 Z " fill="#047DEF" transform="translate(510,262)"/>
<path d="M0 0 C2.31 0 4.62 0 7 0 C7.33 0.66 7.66 1.32 8 2 C6.68 2.33 5.36 2.66 4 3 C4.99 3.99 5.98 4.98 7 6 C6.67 6.66 6.34 7.32 6 8 C4.99403703 7.0479279 3.99538437 6.08812654 3 5.125 C2.443125 4.59132813 1.88625 4.05765625 1.3125 3.5078125 C0 2 0 2 0 0 Z " fill="#0564E9" transform="translate(536,641)"/>
<path d="M0 0 C0 3.96130371 -1.34877125 4.82914401 -4 7.6875 C-4.7425 8.49574219 -5.485 9.30398438 -6.25 10.13671875 C-6.8275 10.75160156 -7.405 11.36648438 -8 12 C-8 8.03869629 -6.65122875 7.17085599 -4 4.3125 C-3.2575 3.50425781 -2.515 2.69601562 -1.75 1.86328125 C-1.1725 1.24839844 -0.595 0.63351562 0 0 Z " fill="#02AFFE" transform="translate(705,665)"/>
<path d="M0 0 C0 3 0 3 -1.75 4.82421875 C-2.4925 5.43910156 -3.235 6.05398438 -4 6.6875 C-4.7425 7.31011719 -5.485 7.93273437 -6.25 8.57421875 C-6.8275 9.04472656 -7.405 9.51523437 -8 10 C-8.66 9.67 -9.32 9.34 -10 9 C-7.90639789 4.81279579 -6.40944113 3.46981371 -2 2 C-1.34 1.34 -0.68 0.68 0 0 Z " fill="#0356E0" transform="translate(679,445)"/>
<path d="M0 0 C0.66 0.66 1.32 1.32 2 2 C0.02 2.33 -1.96 2.66 -4 3 C-4 3.66 -4 4.32 -4 5 C-5.65 4.67 -7.3 4.34 -9 4 C-6.3144406 1.3144406 -3.62378672 0.93950026 0 0 Z " fill="#025DEF" transform="translate(639,469)"/>
<path d="M0 0 C0.66 0.33 1.32 0.66 2 1 C2 1.66 2 2.32 2 3 C-0.5 4.625 -0.5 4.625 -3 6 C-3 4.68 -3 3.36 -3 2 C-2.01 1.34 -1.02 0.68 0 0 Z " fill="#0271F3" transform="translate(414,504)"/>
<path d="M0 0 C0.66 0.66 1.32 1.32 2 2 C3.65 1.34 5.3 0.68 7 0 C4.6875 2.5 4.6875 2.5 2 5 C1.01 5 0.02 5 -1 5 C-0.67 3.35 -0.34 1.7 0 0 Z " fill="#0750DF" transform="translate(403,644)"/>
<path d="M0 0 C0.66 0 1.32 0 2 0 C2 0.66 2 1.32 2 2 C1.34 2 0.68 2 0 2 C0 1.34 0 0.68 0 0 Z " fill="#079BFC" transform="translate(441,360)"/>
<path d="" fill="#0B74F7" transform="translate(0,0)"/>
<path d="M0 0 C3 1 3 1 3 1 Z " fill="#0986FE" transform="translate(356,543)"/>
<path d="M0 0 C0.66 0 1.32 0 2 0 C1.67 0.66 1.34 1.32 1 2 C0.67 1.34 0.34 0.68 0 0 Z " fill="#0B83FB" transform="translate(601,348)"/>
<path d="M0 0 C2 1 2 1 2 1 Z " fill="#0C5AE7" transform="translate(344,735)"/>
<path d="M0 0 C2 1 2 1 2 1 Z " fill="#1085F0" transform="translate(588,727)"/>
<path d="M0 0 C2 1 2 1 2 1 Z " fill="#0C86F1" transform="translate(584,727)"/>
<path d="" fill="#0E64EC" transform="translate(0,0)"/>
<path d="M0 0 C2 1 2 1 2 1 Z " fill="#0B68FA" transform="translate(356,662)"/>
<path d="M0 0 C2 1 2 1 2 1 Z " fill="#0A92FB" transform="translate(605,632)"/>
<path d="M0 0 C2 1 2 1 2 1 Z " fill="#0782FD" transform="translate(364,543)"/>
<path d="" fill="#0C7EFE" transform="translate(0,0)"/>
<path d="" fill="#0982FC" transform="translate(0,0)"/>
<path d="" fill="#098AFC" transform="translate(0,0)"/>
<path d="M0 0 C2 1 2 1 2 1 Z " fill="#0984FD" transform="translate(577,432)"/>
<path d="" fill="#0D64EA" transform="translate(0,0)"/>
<path d="" fill="#1069EB" transform="translate(0,0)"/>
<path d="" fill="#105BE5" transform="translate(0,0)"/>
<path d="" fill="#105CE6" transform="translate(0,0)"/>
<path d="" fill="#145DE7" transform="translate(0,0)"/>
<path d="" fill="#105CE8" transform="translate(0,0)"/>
<path d="" fill="#115CE7" transform="translate(0,0)"/>
<path d="" fill="#1487F0" transform="translate(0,0)"/>
<path d="" fill="#1291F4" transform="translate(0,0)"/>
<path d="" fill="#0F92F6" transform="translate(0,0)"/>
<path d="" fill="#1795F6" transform="translate(0,0)"/>
<path d="" fill="#105CE6" transform="translate(0,0)"/>
<path d="" fill="#0F66F9" transform="translate(0,0)"/>
<path d="" fill="#0F62F3" transform="translate(0,0)"/>
<path d="" fill="#0E7DF9" transform="translate(0,0)"/>
<path d="" fill="#1598F6" transform="translate(0,0)"/>
<path d="" fill="#1069F2" transform="translate(0,0)"/>
<path d="" fill="#0C6CF8" transform="translate(0,0)"/>
<path d="" fill="#0B6DF8" transform="translate(0,0)"/>
<path d="" fill="#0D7EFD" transform="translate(0,0)"/>
<path d="" fill="#1297F2" transform="translate(0,0)"/>
<path d="" fill="#1096F5" transform="translate(0,0)"/>
<path d="" fill="#0D78F8" transform="translate(0,0)"/>
<path d="" fill="#0E71F7" transform="translate(0,0)"/>
<path d="" fill="#0F6DF9" transform="translate(0,0)"/>
<path d="" fill="#0D6DF8" transform="translate(0,0)"/>
<path d="" fill="#0D91FD" transform="translate(0,0)"/>
<path d="" fill="#0C73F7" transform="translate(0,0)"/>
<path d="" fill="#0B78F9" transform="translate(0,0)"/>
<path d="" fill="#0872F7" transform="translate(0,0)"/>
<path d="" fill="#087AFA" transform="translate(0,0)"/>
<path d="" fill="#0B78FC" transform="translate(0,0)"/>
<path d="" fill="#0B72F2" transform="translate(0,0)"/>
<path d="" fill="#097DF9" transform="translate(0,0)"/>
<path d="" fill="#0979F9" transform="translate(0,0)"/>
<path d="" fill="#0C7AFA" transform="translate(0,0)"/>
<path d="" fill="#0976F6" transform="translate(0,0)"/>
<path d="" fill="#0C77F8" transform="translate(0,0)"/>
<path d="" fill="#1193F7" transform="translate(0,0)"/>
<path d="" fill="#1190F4" transform="translate(0,0)"/>
<path d="" fill="#118DF4" transform="translate(0,0)"/>
<path d="" fill="#0986FD" transform="translate(0,0)"/>
<path d="" fill="#0B7DFA" transform="translate(0,0)"/>
<path d="" fill="#0A86FB" transform="translate(0,0)"/>
<path d="" fill="#0682F9" transform="translate(0,0)"/>
<path d="" fill="#1088F6" transform="translate(0,0)"/>
<path d="" fill="#0E84FD" transform="translate(0,0)"/>
<path d="" fill="#0B7FFC" transform="translate(0,0)"/>
<path d="" fill="#0B84FC" transform="translate(0,0)"/>
<path d="" fill="#087EF9" transform="translate(0,0)"/>
<path d="" fill="#0E85FC" transform="translate(0,0)"/>
<path d="" fill="#0B80FD" transform="translate(0,0)"/>
<path d="" fill="#0880FD" transform="translate(0,0)"/>
<path d="" fill="#0D7CFC" transform="translate(0,0)"/>
<path d="" fill="#0C85EF" transform="translate(0,0)"/>
<path d="" fill="#0F84F7" transform="translate(0,0)"/>
<path d="" fill="#0985F9" transform="translate(0,0)"/>
<path d="" fill="#0B85FE" transform="translate(0,0)"/>
<path d="" fill="#0983FD" transform="translate(0,0)"/>
<path d="" fill="#0A86FE" transform="translate(0,0)"/>
<path d="" fill="#0B80F8" transform="translate(0,0)"/>
<path d="" fill="#0B86FD" transform="translate(0,0)"/>
<path d="" fill="#0876FB" transform="translate(0,0)"/>
<path d="" fill="#0C7FFD" transform="translate(0,0)"/>
<path d="" fill="#0C8FF6" transform="translate(0,0)"/>
<path d="" fill="#0C79FA" transform="translate(0,0)"/>
<path d="" fill="#0A8AFA" transform="translate(0,0)"/>
<path d="" fill="#0A8DF8" transform="translate(0,0)"/>
<path d="" fill="#0B74F5" transform="translate(0,0)"/>
<path d="" fill="#0C95FB" transform="translate(0,0)"/>
<path d="" fill="#0F91F2" transform="translate(0,0)"/>
<path d="" fill="#0D81FE" transform="translate(0,0)"/>
<path d="" fill="#0C84FD" transform="translate(0,0)"/>
<path d="" fill="#0F92F1" transform="translate(0,0)"/>
<path d="" fill="#0983FC" transform="translate(0,0)"/>
<path d="" fill="#0783FC" transform="translate(0,0)"/>
<path d="" fill="#109BF8" transform="translate(0,0)"/>
<path d="" fill="#1199F4" transform="translate(0,0)"/>
<path d="" fill="#0A85FB" transform="translate(0,0)"/>
<path d="" fill="#08A0FB" transform="translate(0,0)"/>
<path d="" fill="#079FFB" transform="translate(0,0)"/>
<path d="" fill="#08A2FC" transform="translate(0,0)"/>
<path d="" fill="#06A2FA" transform="translate(0,0)"/>
<path d="" fill="#0796FF" transform="translate(0,0)"/>
<path d="" fill="#0F9AF4" transform="translate(0,0)"/>
<path d="" fill="#0B85F9" transform="translate(0,0)"/>
<path d="" fill="#1077F3" transform="translate(0,0)"/>
<path d="" fill="#049BFB" transform="translate(0,0)"/>
<path d="" fill="#089BFD" transform="translate(0,0)"/>
<path d="" fill="#049CFD" transform="translate(0,0)"/>
<path d="" fill="#0C84F7" transform="translate(0,0)"/>
<path d="" fill="#0D7BF2" transform="translate(0,0)"/>
<path d="" fill="#0989F7" transform="translate(0,0)"/>
<path d="" fill="#0D85FC" transform="translate(0,0)"/>
<path d="" fill="#0786FC" transform="translate(0,0)"/>
<path d="" fill="#099FFA" transform="translate(0,0)"/>
<path d="" fill="#0985FC" transform="translate(0,0)"/>
<path d="" fill="#089DF8" transform="translate(0,0)"/>
<path d="" fill="#0982F9" transform="translate(0,0)"/>
<path d="" fill="#0988F6" transform="translate(0,0)"/>
<path d="" fill="#0C8AF6" transform="translate(0,0)"/>
<path d="" fill="#079DFD" transform="translate(0,0)"/>
<path d="" fill="#0987FC" transform="translate(0,0)"/>
<path d="" fill="#0C8CFE" transform="translate(0,0)"/>
<path d="" fill="#08A1FA" transform="translate(0,0)"/>
<path d="" fill="#0C82F8" transform="translate(0,0)"/>
<path d="" fill="#088FFD" transform="translate(0,0)"/>
<path d="" fill="#078AFC" transform="translate(0,0)"/>
<path d="" fill="#06A0FC" transform="translate(0,0)"/>
<path d="" fill="#0687FA" transform="translate(0,0)"/>
<path d="" fill="#00A1F9" transform="translate(0,0)"/>
<path d="" fill="#0A8AFE" transform="translate(0,0)"/>
<path d="" fill="#069CFA" transform="translate(0,0)"/>
<path d="" fill="#0D81F2" transform="translate(0,0)"/>
<path d="" fill="#0897F6" transform="translate(0,0)"/>
<path d="" fill="#089FF7" transform="translate(0,0)"/>
<path d="" fill="#0C7CED" transform="translate(0,0)"/>
<path d="" fill="#0D98FA" transform="translate(0,0)"/>
<path d="" fill="#0C9CF7" transform="translate(0,0)"/>
<path d="" fill="#0C9CFB" transform="translate(0,0)"/>
<path d="" fill="#0F8CF0" transform="translate(0,0)"/>
<path d="" fill="#0A9EF8" transform="translate(0,0)"/>
<path d="" fill="#0D86F3" transform="translate(0,0)"/>
<path d="" fill="#0D8AF3" transform="translate(0,0)"/>
<path d="" fill="#0F91F2" transform="translate(0,0)"/>
<path d="" fill="#109CF6" transform="translate(0,0)"/>
<path d="" fill="#0C9FF3" transform="translate(0,0)"/>
<path d="" fill="#118BEF" transform="translate(0,0)"/>
</svg>
